#!OML:ASF E:\Style4\Style4.ASF
:FULLY-SPECIFIED
:DEGREES
777
root 0.00136513 16.8403 -1.805 9.06904 -1.54923 3.71591
lowerback 8.57779 1.1244 -2.77151
upperback 1.93027 1.18842 -1.77258
thorax -2.8262 0.605002 -0.404218
lowerneck 3.68895 -3.39792 -7.75018
upperneck 2.20624 -4.83989 4.73449
head 0.386612 -2.48179 2.88842
rclavicle -2.50966e-015 -2.03754e-015
rhumerus -79.1608 71.5372 -98.7768
rradius 79.9311
rwrist 8.48548
rhand -20.9104 43.9309
rfingers 7.12502
rthumb 5.46081 14.0213
lclavicle -2.50966e-015 -2.03754e-015
lhumerus -34.7424 -1.41147 59.81
lradius 77.6721
lwrist 46.0421
lhand -4.66543 19.1763
lfingers 7.12502
lthumb 21.1148 48.0466
rfemur -35.0043 0.163751 13.936
rtibia 55.4178
rfoot -27.165 -14.8439
rtoes -12.3677
lfemur -32.5342 -0.331226 -23.3595
ltibia 52.2476
lfoot -27.1679 7.56591
ltoes -16.536
778
root -0.0014969 16.839 -1.80283 9.04793 -1.50828 3.71313
lowerback 8.58283 1.12786 -2.78254
upperback 1.92951 1.19218 -1.76148
thorax -2.8303 0.607009 -0.387094
lowerneck 3.81263 -3.42309 -7.77724
upperneck 2.09391 -4.88195 4.76792
head 0.333833 -2.50314 2.90894
rclavicle -3.01904e-015 -6.4605e-015
rhumerus -80.762 71.1442 -100.996
rradius 80.4441
rwrist 8.65266
rhand -20.7274 43.6449
rfingers 7.12502
rthumb 5.63755 13.7399
lclavicle -3.01904e-015 -6.4605e-015
lhumerus -34.6868 -1.4765 59.8587
lradius 77.6392
lwrist 45.9549
lhand -4.0404 18.8759
lfingers 7.12502
lthumb 21.7152 47.6779
rfemur -34.9614 0.174287 13.9507
rtibia 55.4157
rfoot -27.1564 -14.9188
rtoes -12.5261
lfemur -32.5153 -0.36085 -23.342
ltibia 52.2673
lfoot -27.2011 7.65303
ltoes -16.9048
779
root -0.00366665 16.8359 -1.80103 9.03947 -1.44528 3.69
lowerback 8.58663 1.11717 -2.77069
upperback 1.93529 1.1803 -1.72407
thorax -2.8268 0.601051 -0.353733
lowerneck 3.83918 -3.43586 -7.84984
upperneck 2.04785 -4.90308 4.79303
head 0.31865 -2.51405 2.93222
rclavicle 8.18744e-015 9.14409e-015
rhumerus -82.2067 70.789 -103.079
rradius 80.9668
rwrist 8.73546
rhand -20.595 43.3783
rfingers 7.12502
rthumb 5.76541 13.4767
lclavicle 8.18744e-015 9.14409e-015
lhumerus -34.6744 -1.54048 59.9652
lradius 77.6542
lwrist 45.9373
lhand -3.57337 18.4955
lfingers 7.12502
lthumb 22.1636 47.245
rfemur -34.9246 0.167736 13.9818
rtibia 55.4142
rfoot -27.2597 -14.8576
rtoes -12.3287
lfemur -32.525 -0.3798 -23.3014
ltibia 52.2953
lfoot -27.2278 7.58968
ltoes -16.8513
780
root -0.00454065 16.8355 -1.79895 9.0518 -1.40045 3.65609
lowerback 8.55078 1.11614 -2.74344
upperback 1.94663 1.18441 -1.68786
thorax -2.79544 0.60268 -0.33112
lowerneck 3.78732 -3.45996 -7.91985
upperneck 2.08235 -4.93474 4.82055
head 0.343572 -2.53027 2.95298
rclavicle 6.55989e-015 -1.47101e-014
rhumerus -83.5601 70.3992 -105.097
rradius 81.4422
rwrist 8.82571
rhand -20.5607 43.2154
rfingers 7.12502
rthumb 5.79847 13.3148
lclavicle 6.55989e-015 -1.47101e-014
lhumerus -34.6747 -1.61093 60.0661
lradius 77.7167
lwrist 45.909
lhand -4.05832 18.7339
lfingers 7.12502
lthumb 21.698 47.5379
rfemur -34.9158 0.154039 14.0275
rtibia 55.3986
rfoot -27.2572 -14.897
rtoes -12.4212
lfemur -32.5395 -0.403428 -23.2554
ltibia 52.3155
lfoot -27.2919 7.59447
ltoes -17.0918
781
root -0.00529844 16.836 -1.79763 9.07368 -1.36334 3.67584
lowerback 8.52473 1.10581 -2.77387
upperback 1.94257 1.16943 -1.67569
thorax -2.7858 0.595422 -0.299372
lowerneck 3.76952 -3.46352 -7.93658
upperneck 2.0952 -4.93908 4.83106
head 0.351829 -2.53255 2.95911
rclavicle 2.17918e-014 -2.06985e-014
rhumerus -84.8422 69.969 -107.122
rradius 81.8955
rwrist 8.81646
rhand -20.4059 43.0305
rfingers 7.12502
rthumb 5.94792 13.134
lclavicle 2.17918e-014 -2.06985e-014
lhumerus -34.6728 -1.63588 60.1272
lradius 77.754
lwrist 45.9031
lhand -4.52969 19.0014
lfingers 7.12502
lthumb 21.2452 47.8571
rfemur -34.9657 0.146172 14.0102
rtibia 55.3818
rfoot -27.088 -15.1022
rtoes -12.9783
lfemur -32.5601 -0.427791 -23.2756
ltibia 52.3215
lfoot -27.288 7.66332
ltoes -17.2782
782
root -0.00585843 16.8358 -1.79568 9.07685 -1.32362 3.67825
lowerback 8.51611 1.10516 -2.76173
upperback 1.9333 1.16982 -1.67413
thorax -2.79043 0.595651 -0.304549
lowerneck 3.81224 -3.47705 -7.96645
upperneck 2.07291 -4.96171 4.89413
head 0.34146 -2.54446 2.98742
rclavicle 1.2834e-014 -3.13086e-014
rhumerus -86.0605 69.4688 -109.152
rradius 82.3404
rwrist 8.72885
rhand -20.0915 42.7617
rfingers 7.12502
rthumb 6.25147 12.874
lclavicle 1.2834e-014 -3.13086e-014
lhumerus -34.6331 -1.68838 60.1828
lradius 77.7496
lwrist 45.9838
lhand -4.62667 19.1177
lfingers 7.12502
lthumb 21.1521 47.9839
rfemur -34.9817 0.157742 14.0108
rtibia 55.3725
rfoot -27.0239 -15.2184
rtoes -13.1995
lfemur -32.5555 -0.461292 -23.2721
ltibia 52.3088
lfoot -27.2309 7.56345
ltoes -16.6809
783
root -0.00754743 16.8356 -1.79275 9.07023 -1.28504 3.71723
lowerback 8.51644 1.09985 -2.79801
upperback 1.91865 1.159 -1.67962
thorax -2.80619 0.590736 -0.288936
lowerneck 3.85014 -3.47506 -8.04988
upperneck 2.0816 -4.96603 4.97757
head 0.342595 -2.54797 3.03236
rclavicle -8.08805e-015 9.39258e-015
rhumerus -87.3865 68.9533 -111.318
rradius 82.8046
rwrist 8.67649
rhand -19.9167 42.6737
rfingers 7.12502
rthumb 6.42025 12.791
lclavicle -8.08805e-015 9.39258e-015
lhumerus -34.6338 -1.66133 60.2298
lradius 77.7777
lwrist 45.9723
lhand -4.61805 19.3385
lfingers 7.12502
lthumb 21.1604 48.2037
rfemur -34.9273 0.137695 13.9747
rtibia 55.4032
rfoot -27.2149 -15.0373
rtoes -12.6366
lfemur -32.533 -0.498839 -23.3049
ltibia 52.2832
lfoot -27.1976 7.4945
ltoes -16.5309
784
root -0.00935606 16.8359 -1.79019 9.04092 -1.25928 3.77583
lowerback 8.5425 1.11461 -2.84486
upperback 1.91464 1.1727 -1.69588
thorax -2.8256 0.598005 -0.28158
lowerneck 3.82626 -3.48307 -8.10849
upperneck 2.14254 -4.97865 5.02824
head 0.37022 -2.55526 3.05936
rclavicle -1.6437e-014 -6.11263e-015
rhumerus -88.6135 68.3505 -113.337
rradius 83.3345
rwrist 8.5653
rhand -19.5592 42.8829
rfingers 7.12502
rthumb 6.76533 13.011
lclavicle -1.6437e-014 -6.11263e-015
lhumerus -34.6162 -1.65483 60.306
lradius 77.8262
lwrist 45.9208
lhand -4.49337 19.4063
lfingers 7.12502
lthumb 21.2801 48.258
rfemur -34.8644 0.110876 13.9257
rtibia 55.4447
rfoot -27.3 -14.9994
rtoes -12.4508
lfemur -32.4802 -0.521272 -23.3607
ltibia 52.257
lfoot -27.2058 7.48348
ltoes -16.5936
785
root -0.0108184 16.8363 -1.78869 9.0308 -1.18409 3.79151
lowerback 8.56322 1.1052 -2.81659
upperback 1.90023 1.16106 -1.70804
thorax -2.85104 0.592338 -0.309345
lowerneck 3.84536 -3.48989 -8.14669
upperneck 2.18944 -4.9918 5.0656
head 0.384977 -2.56294 3.07919
rclavicle 8.03214e-015 2.80783e-015
rhumerus -89.8357 67.7338 -115.386
rradius 83.8556
rwrist 8.48211
rhand -19.1899 42.8222
rfingers 7.12502
rthumb 7.12188 12.9621
lclavicle 8.03214e-015 2.80783e-015
lhumerus -34.5963 -1.72334 60.3523
lradius 77.823
lwrist 45.9233
lhand -3.86805 19.0702
lfingers 7.12502
lthumb 21.8807 47.853
rfemur -34.8294 0.0468322 13.9234
rtibia 55.4515
rfoot -27.3452 -14.9693
rtoes -12.1202
lfemur -32.4629 -0.570593 -23.3644
ltibia 52.2503
lfoot -27.1866 7.4069
ltoes -16.3554
786
root -0.0128535 16.8358 -1.78651 9.04657 -1.13022 3.75292
lowerback 8.54353 1.10714 -2.74095
upperback 1.88488 1.17083 -1.70624
thorax -2.85475 0.596829 -0.350749
lowerneck 3.90576 -3.50904 -8.17489
upperneck 2.1835 -5.02305 5.08623
head 0.376194 -2.5794 3.09301
rclavicle -5.25537e-015 1.45113e-014
rhumerus -90.9648 67.1389 -117.399
rradius 84.4013
rwrist 8.4004
rhand -18.7589 42.2988
rfingers 7.12502
rthumb 7.53784 12.4531
lclavicle -5.25537e-015 1.45113e-014
lhumerus -34.6317 -1.88685 60.3756
lradius 77.912
lwrist 46.016
lhand -3.33587 18.8167
lfingers 7.12502
lthumb 22.3916 47.5389
rfemur -34.8164 0.0103857 13.9838
rtibia 55.4405
rfoot -27.3767 -14.9952
rtoes -12.1213
lfemur -32.4776 -0.595919 -23.3098
ltibia 52.25
lfoot -27.1438 7.38003
ltoes -16.3017
787
root -0.0149422 16.8361 -1.78436 9.0561 -1.08309 3.66588
lowerback 8.52626 1.11256 -2.6295
upperback 1.88773 1.18924 -1.68953
thorax -2.84064 0.605138 -0.397546
lowerneck 3.88713 -3.5463 -8.17135
upperneck 2.21479 -5.0715 5.07524
head 0.392585 -2.60367 3.08759
rclavicle 5.19325e-015 1.38155e-014
rhumerus -92.0914 66.5678 -119.428
rradius 84.9597
rwrist 8.30393
rhand -18.4305 41.7064
rfingers 7.12502
rthumb 7.85486 11.8724
lclavicle 5.19325e-015 1.38155e-014
lhumerus -34.5867 -2.03531 60.4412
lradius 77.913
lwrist 46.0561
lhand -3.83977 18.9826
lfingers 7.12502
lthumb 21.9078 47.7622
rfemur -34.8241 0.0370012 14.0933
rtibia 55.4194
rfoot -27.2493 -15.2142
rtoes -12.6199
lfemur -32.4897 -0.60035 -23.2
ltibia 52.2584
lfoot -27.1508 7.42797
ltoes -16.6891
788
root -0.0186317 16.8357 -1.78062 9.06276 -1.0504 3.77158
lowerback 8.4995 1.12042 -2.73685
upperback 1.88732 1.19051 -1.71546
thorax -2.82779 0.606369 -0.363787
lowerneck 3.88225 -3.56342 -8.21482
upperneck 2.22221 -5.09577 5.08632
head 0.399158 -2.61618 3.0993
rclavicle -3.926e-015 1.81639e-014
rhumerus -93.3223 66.0046 -121.557
rradius 85.4701
rwrist 8.35493
rhand -18.3612 41.422
rfingers 7.12502
rthumb 7.92169 11.5904
lclavicle -3.926e-015 1.81639e-014
lhumerus -34.4733 -2.08417 60.5456
lradius 77.8145
lwrist 46.0298
lhand -4.38671 19.1596
lfingers 7.12502
lthumb 21.3826 47.9998
rfemur -34.85 0.0200778 13.9897
rtibia 55.436
rfoot -27.1314 -15.3938
rtoes -13.0894
lfemur -32.469 -0.615588 -23.3023
ltibia 52.2477
lfoot -27.1848 7.40712
ltoes -16.6419
789
root -0.0225305 16.8341 -1.77763 9.07864 -0.992849 3.85818
lowerback 8.4826 1.14112 -2.80724
upperback 1.87918 1.21167 -1.73597
thorax -2.82811 0.617385 -0.347622
lowerneck 3.90789 -3.58748 -8.2737
upperneck 2.19242 -5.13193 5.12783
head 0.390714 -2.63474 3.12551
rclavicle 4.49129e-015 1.96051e-014
rhumerus -94.4943 65.3837 -123.667
rradius 85.9043
rwrist 8.50787
rhand -18.3415 41.578
rfingers 7.12502
rthumb 7.9407 11.7471
lclavicle 4.49129e-015 1.96051e-014
lhumerus -34.3632 -2.10001 60.6814
lradius 77.7428
lwrist 45.9916
lhand -4.31072 19.3803
lfingers 7.12502
lthumb 21.4556 48.2122
rfemur -34.8327 -0.0382876 13.9239
rtibia 55.4934
rfoot -27.244 -15.3552
rtoes -12.9255
lfemur -32.4722 -0.65904 -23.3821
ltibia 52.2385
lfoot -27.1943 7.44859
ltoes -16.9444
790
root -0.0270257 16.8338 -1.77471 9.07468 -0.972641 3.86454
lowerback 8.47453 1.16093 -2.84764
upperback 1.88045 1.23518 -1.72416
thorax -2.82376 0.629313 -0.315151
lowerneck 3.90465 -3.59998 -8.28405
upperneck 2.2036 -5.14888 5.1269
head 0.396387 -2.64336 3.12686
rclavicle -8.90804e-015 7.92654e-015
rhumerus -95.6506 64.7966 -125.791
rradius 86.3467
rwrist 8.66491
rhand -18.3281 41.6906
rfingers 7.12502
rthumb 7.95371 11.8602
lclavicle -8.90804e-015 7.92654e-015
lhumerus -34.3122 -2.05132 60.7803
lradius 77.7458
lwrist 45.9982
lhand -4.1782 19.6036
lfingers 7.12502
lthumb 21.5828 48.4209
rfemur -34.7875 -0.00859675 13.9363
rtibia 55.5351
rfoot -27.4305 -15.245
rtoes -12.483
lfemur -32.4605 -0.652786 -23.3706
ltibia 52.2301
lfoot -27.1729 7.44955
ltoes -17.0114
791
root -0.0302609 16.8327 -1.77282 9.10344 -0.963289 3.85684
lowerback 8.43321 1.17271 -2.83734
upperback 1.87721 1.253 -1.73731
thorax -2.80395 0.637947 -0.335603
lowerneck 3.92947 -3.61628 -8.22884
upperneck 2.18492 -5.16952 5.08044
head 0.384614 -2.65317 3.10131
rclavicle 5.23052e-015 -3.95085e-015
rhumerus -96.7253 64.2217 -127.901
rradius 86.7505
rwrist 8.73632
rhand -18.4015 41.5626
rfingers 7.12502
rthumb 7.88286 11.7296
lclavicle 5.23052e-015 -3.95085e-015
lhumerus -34.2851 -2.01472 60.8408
lradius 77.7492
lwrist 45.9194
lhand -4.20526 19.4811
lfingers 7.12502
lthumb 21.5568 48.3014
rfemur -34.8498 0.0440853 13.9445
rtibia 55.5454
rfoot -27.4068 -15.329
rtoes -12.5383
lfemur -32.4961 -0.638582 -23.3511
ltibia 52.2389
lfoot -27.1115 7.41153
ltoes -16.8973
